<?xml version="1.0" encoding="UTF-8" standalone="no"?>
<!DOCTYPE svg PUBLIC "-//W3C//DTD SVG 20010904//EN"
              "http://www.w3.org/TR/2001/REC-SVG-20010904/DTD/svg10.dtd">

<svg version="1.1" id="Layer_1" xmlns="http://www.w3.org/2000/svg" xmlns:xlink="http://www.w3.org/1999/xlink" x="0px" y="0px"
	 viewBox="0 0 267.8 144.7" enable-background="new 0 0 267.8 144.7" xml:space="preserve">
  <path id="Selection"
        fill="#ffffff"
        d="M 143.72,22.40
           C 145.70,24.35 149.41,23.99 152.00,24.00
             157.75,24.01 162.33,23.62 168.00,25.00
             165.99,31.52 155.00,37.92 149.00,41.00
             151.02,47.93 156.53,60.31 155.00,67.00
             155.00,67.00 149.00,64.00 149.00,64.00
             150.31,69.72 148.07,72.66 146.23,78.00
             144.39,83.33 142.22,91.40 142.04,97.00
             141.88,101.94 144.00,110.64 146.43,114.87
             148.78,118.96 150.05,117.45 151.00,123.00
             154.51,123.00 168.03,122.08 169.96,124.60
             171.60,126.83 170.58,132.47 169.96,135.00
             178.71,137.95 177.13,144.83 168.00,145.00
             168.00,145.00 101.00,145.00 101.00,145.00
             98.82,145.00 95.16,145.21 93.31,143.98
             92.21,143.24 91.61,142.25 91.37,140.96
             90.61,136.90 93.99,136.01 97.02,135.00
             96.34,132.58 95.35,126.73 97.02,124.58
             99.03,122.07 112.44,123.00 116.00,123.00
             117.15,116.44 119.44,119.28 122.59,113.94
             125.14,109.62 126.62,101.02 126.41,96.00
             126.17,90.07 124.88,84.54 122.81,79.00
             121.82,76.38 119.14,69.65 119.50,67.09
             120.09,62.88 125.45,60.87 129.00,60.00
             131.28,72.73 132.87,92.02 132.83,104.96
             132.81,110.87 131.51,114.71 136.00,119.00
             136.00,119.00 137.00,88.00 137.00,88.00
             137.00,88.00 139.00,61.00 139.00,61.00
             139.00,61.00 145.00,60.00 145.00,60.00
             142.31,58.62 136.38,54.29 134.00,54.26
             131.25,54.23 128.08,57.17 126.00,58.79
             121.54,62.27 117.88,65.99 112.00,66.00
             112.00,66.00 116.83,50.00 116.83,50.00
             117.46,48.14 119.13,44.44 118.51,42.62
             117.65,40.10 107.67,33.34 105.02,31.28
             103.58,30.17 99.80,27.83 101.17,25.56
             102.15,23.92 105.35,24.03 107.00,24.00
             110.62,23.94 121.08,24.64 123.73,22.98
             126.18,21.44 127.13,17.62 128.00,15.00
             130.08,8.73 130.33,5.82 134.00,0.00
             139.94,5.64 139.88,18.62 143.72,22.40 Z
           M 112.95,40.83
           C 119.38,40.43 115.69,49.55 115.00,53.00
             109.88,51.26 108.65,46.99 108.00,42.00
             108.00,42.00 112.95,40.83 112.95,40.83 Z
           M 162.00,43.00
           C 162.00,43.00 158.00,53.00 158.00,53.00
             152.67,51.19 152.47,46.94 151.00,42.00
             156.09,40.10 157.13,41.08 162.00,43.00 Z
           M 149.00,64.00
           C 149.00,64.00 146.00,61.00 146.00,61.00
             146.00,63.35 146.94,63.21 149.00,64.00 Z" />
</svg>
