<?xml version="1.0" encoding="utf-8"?>
<!-- Generator: Adobe Illustrator 18.0.0, SVG Export Plug-In . SVG Version: 6.00 Build 0)  -->
<!DOCTYPE svg PUBLIC "-//W3C//DTD SVG 1.1//EN" "http://www.w3.org/Graphics/SVG/1.1/DTD/svg11.dtd">
<svg version="1.1" id="Layer_1" xmlns="http://www.w3.org/2000/svg" xmlns:xlink="http://www.w3.org/1999/xlink" x="0px" y="0px"
	 viewBox="0 0 267.8 144.7" enable-background="new 0 0 267.8 144.7" xml:space="preserve">
<g>
	<path fill="#FFFFFF" d="M138.9,85.9c-0.1,0.1-0.2,0.1-0.3,0.1c0,0,0,0,0,0c0,0-0.1,0-0.1,0c-0.2,0-0.3-0.2-0.3-0.3l-1.9-8.3
		c0-0.1,0-0.2,0.1-0.3c0.1-0.2,0.2-0.3,0.3-0.5c0.6-1.1,0.7-2.5,0.3-3.4c-0.4-0.8-1.1-1.4-2.2-1.6c0,0-0.1,0-0.1,0
		c-0.2,0-0.3-0.1-0.3-0.3l-1.6-4.2c-0.1-0.2-0.2-0.5-0.2-0.7c-0.1-0.2-0.2-0.4-0.2-0.6c0.1-0.1,0.3-0.3,0.4-0.4
		c0.2-0.3,0.4-0.7,0.7-0.9l2.1-1.5c0.1-0.1,0.3-0.2,0.5-0.3c0.5-0.2,1.1-0.3,1.6-0.2c0.5,0.1,1.1,0.2,1.8,0.4
		c3.8,1,10.1,3.2,10.1,7.3C149.4,75.6,139.4,85.5,138.9,85.9z"/>
	<path fill="#FFFFFF" d="M185.2,111.1c-4.3,4.1-9.8,6.2-15.3,6.2c-5.8,0-11.7-2.3-16-6.8c-8.5-8.8-8.2-22.9,0.7-31.3
		c1.9-1.8,4-3.2,6.3-4.2l6.7,18.9c-0.2,0.4-0.3,0.8-0.3,1.3c0,1.5,1.2,2.7,2.7,2.7c1.5,0,2.7-1.2,2.7-2.7c0-1.1-0.7-2.1-1.7-2.5
		l-6.7-18.9c1.9-0.5,3.8-0.8,5.7-0.8c5.8,0,11.7,2.3,16,6.8C194.4,88.6,194.1,102.6,185.2,111.1z"/>
	<path fill="#FFFFFF" d="M162.7,19.7c0,0,0.1,0,0.1,0c5.6,0,10.2,4.5,10.2,10.1c0.1,5.6-4.5,10.3-10.1,10.3c0,0-0.1,0-0.1,0
		c-5.6,0-10.2-4.5-10.2-10.1C152.5,24.4,157.1,19.8,162.7,19.7z"/>
	<path fill="#FFFFFF" d="M112.7,60c2-8.5,22.7-22.1,30.3-22.1c0.2,0,0.5,0,0.7,0c6.9,0.9,12.5,10.6,18.3,15.4
		c5.8,4.8,12.7,7.1,12.7,10.7c0,1-0.9,1.4-2.4,1.4c-3.8,0-11.1-2.7-15.2-5.1c-5.7-3.2-8.4-7.5-10.9-7.6c0,0,0,0-0.1,0
		c-2.7,0-17.8,10.1-17.7,12.5c0.2,2.4,5.7,12,6.5,19.6c0.8,7.5-2.8,19.5-7.8,19.5c-3.8,0,0.6-5.3-2.5-18.5S110.6,69.1,112.7,60z"/>
	<path fill="#FFFFFF" d="M81.3,79.1c4.3-4.1,9.8-6.2,15.3-6.2c5.2,0,10.3,1.8,14.4,5.3c-0.1,0.1-0.3,0.2-0.4,0.3L96.7,92.4
		c0,0-0.1,0-0.1,0c-1.5,0-2.7,1.2-2.7,2.7c0,1.5,1.2,2.7,2.7,2.7c1.5,0,2.7-1.2,2.7-2.7c0,0,0-0.1,0-0.1l13.9-13.9
		c0.1-0.1,0.2-0.3,0.3-0.4c7.6,8.9,7,22.3-1.5,30.4c-4.3,4.1-9.8,6.2-15.3,6.2c-5.8,0-11.7-2.3-16-6.8
		C72.1,101.6,72.4,87.5,81.3,79.1z"/>
</g>
</svg>
