<?xml version="1.0" encoding="UTF-8" standalone="no"?>
<!DOCTYPE svg PUBLIC "-//W3C//DTD SVG 20010904//EN"
              "http://www.w3.org/TR/2001/REC-SVG-20010904/DTD/svg10.dtd">

<svg version="1.1" id="Layer_1" xmlns="http://www.w3.org/2000/svg" xmlns:xlink="http://www.w3.org/1999/xlink" x="0px" y="0px"
	 viewBox="0 0 267.8 144.7" enable-background="new 0 0 267.8 144.7" xml:space="preserve">
  <path id="Selection"
        fill="#ffffff"
        d="M 110.86,2.43
           C 116.97,7.62 116.12,19.95 108.98,23.84
             101.23,28.06 88.00,24.31 89.06,11.00
             89.46,5.94 92.01,3.71 96.00,1.02
             100.48,-0.48 107.01,-0.83 110.86,2.43 Z
           M 100.00,139.26
           C 96.87,141.36 90.96,145.44 87.74,141.67
             82.38,135.42 89.88,128.80 94.00,124.91
             103.77,115.70 115.73,103.49 114.91,89.00
             114.53,82.39 113.76,73.76 110.47,68.00
             107.49,62.78 103.76,60.31 100.39,56.00
             95.48,49.73 91.18,37.92 97.39,31.22
             102.55,25.66 107.63,28.65 114.00,24.35
             119.02,20.98 127.06,13.03 133.94,15.61
             135.63,16.24 136.76,17.37 137.39,19.06
             139.71,25.35 131.82,31.57 128.10,35.42
             126.75,36.81 125.57,37.91 125.73,40.01
             125.87,41.77 129.89,48.03 131.00,50.00
             133.84,55.03 135.95,60.48 137.65,66.00
             139.30,71.35 138.99,73.58 139.00,79.00
             139.00,79.00 139.91,94.00 139.91,94.00
             139.91,94.00 138.83,108.00 138.83,108.00
             138.83,108.00 134.80,133.00 134.80,133.00
             134.05,137.03 134.10,141.27 132.16,144.98
             128.73,151.56 122.05,150.73 120.02,147.69
             118.82,145.89 118.97,142.14 119.01,140.00
             119.21,131.19 122.92,121.86 122.00,113.00
             118.15,123.66 109.34,133.02 100.00,139.26 Z
           M 96.00,27.00
           C 92.57,35.81 81.01,46.45 79.35,51.00
             77.55,55.97 83.37,61.17 80.94,64.25
             79.54,66.19 76.61,65.10 75.04,64.25
             71.53,61.99 68.26,57.25 69.61,53.00
             70.44,50.40 74.24,46.21 76.08,44.00
             80.79,38.35 87.41,31.15 91.00,25.00
             91.00,25.00 96.00,27.00 96.00,27.00 Z
           M 205.69,95.10
           C 209.18,97.47 208.39,103.90 204.85,105.79
             199.82,108.46 190.42,101.77 199.06,95.10
             201.41,94.28 203.37,93.65 205.69,95.10 Z" />
</svg>
