<?xml version="1.0" encoding="UTF-8" standalone="no"?>
<!DOCTYPE svg PUBLIC "-//W3C//DTD SVG 20010904//EN"
              "http://www.w3.org/TR/2001/REC-SVG-20010904/DTD/svg10.dtd">

<svg version="1.1" id="Layer_1" xmlns="http://www.w3.org/2000/svg" xmlns:xlink="http://www.w3.org/1999/xlink" x="0px" y="0px"
	 viewBox="0 0 267.8 144.7" enable-background="new 0 0 267.8 144.7" xml:space="preserve">
  <path id="Selection"
        fill="#ffffff"
        d="M 109.12,18.00
           C 110.46,-1.58 141.78,5.32 133.77,23.99
             132.88,26.07 131.62,27.77 129.81,29.15
             127.90,30.61 125.40,31.58 123.00,31.77
             118.66,32.14 115.99,29.67 112.00,29.00
             111.11,24.74 108.78,22.91 109.12,18.00 Z
           M 90.00,63.63
           C 90.00,63.63 83.31,59.93 83.31,59.93
             81.71,58.65 81.01,57.06 81.37,55.00
             82.38,49.23 95.06,45.69 100.00,43.91
             109.95,40.34 130.26,30.46 140.00,31.33
             145.96,31.85 147.47,34.17 152.00,35.00
             153.02,38.81 157.95,42.79 160.49,46.00
             164.11,50.58 167.39,55.84 170.11,61.00
             174.19,68.74 173.12,72.83 182.00,73.00
             182.00,73.00 200.00,73.00 200.00,73.00
             203.49,73.05 208.69,73.15 208.72,77.94
             208.73,79.11 208.36,80.09 207.43,80.83
             205.64,82.24 201.25,82.00 199.00,82.00
             199.00,82.00 151.00,82.00 151.00,82.00
             143.99,82.00 131.24,81.23 125.00,83.00
             125.00,83.00 134.00,87.98 134.00,87.98
             137.32,88.81 146.55,86.25 151.00,85.88
             172.96,84.97 172.06,82.87 196.00,85.88
             203.12,86.56 217.27,86.97 220.00,95.00
             220.00,95.00 186.00,95.00 186.00,95.00
             186.00,95.00 147.00,100.00 147.00,100.00
             158.25,109.63 158.06,105.03 167.00,108.40
             171.36,110.04 180.67,117.33 183.43,121.04
             189.57,129.28 179.48,137.02 175.00,137.40
             172.68,137.60 170.01,136.42 168.00,135.36
             162.65,132.52 156.41,127.07 153.11,122.00
             147.90,114.03 152.62,114.84 143.00,106.92
             141.24,105.48 139.15,103.68 137.00,102.87
             133.44,101.52 125.01,103.94 120.00,104.00
             120.00,104.00 106.00,104.96 106.00,104.96
             100.27,105.21 98.33,104.68 93.00,104.00
             93.00,104.00 85.00,104.00 85.00,104.00
             79.60,103.25 68.93,99.66 64.00,97.24
             56.65,93.64 49.28,89.38 47.00,81.00
             47.00,81.00 75.00,90.77 75.00,90.77
             92.64,93.72 106.09,91.00 123.00,90.77
             120.24,88.36 115.58,83.82 112.00,82.58
             109.41,81.69 101.18,82.00 98.00,82.00
             98.00,82.00 69.00,82.00 69.00,82.00
             66.93,81.99 63.25,82.15 61.57,80.83
             60.64,80.09 60.27,79.11 60.28,77.94
             60.31,73.15 65.51,73.05 69.00,73.00
             69.00,73.00 93.00,73.00 93.00,73.00
             96.75,72.99 98.32,73.04 102.00,72.00
             96.35,69.45 94.72,66.82 90.00,63.63 Z
           M 125.00,51.49
           C 122.68,51.15 118.36,52.64 116.00,53.27
             116.00,53.27 97.00,59.00 97.00,59.00
             98.94,61.59 103.41,66.78 106.91,66.84
             110.15,66.88 112.78,61.33 121.00,63.34
             128.27,65.12 132.11,71.00 141.00,72.00
             139.70,66.72 130.59,52.29 125.00,51.49 Z
           M 146.00,99.00
           C 146.00,99.00 147.00,100.00 147.00,100.00
             147.00,100.00 147.00,99.00 147.00,99.00
             147.00,99.00 146.00,99.00 146.00,99.00 Z" />
</svg>
