<?xml version="1.0" standalone="no"?>
<!DOCTYPE svg PUBLIC "-//W3C//DTD SVG 20010904//EN"
 "http://www.w3.org/TR/2001/REC-SVG-20010904/DTD/svg10.dtd">
<svg version="1.1" id="Layer_1" xmlns="http://www.w3.org/2000/svg" xmlns:xlink="http://www.w3.org/1999/xlink" x="0px" y="0px"
	 viewBox="-50 0 287.8 184.7" enable-background="new -50 0 287.8 184.7" xml:space="preserve">
<g transform="translate(0.000000,180.000000) scale(0.100000,-0.100000)">
<path fill="#FFFFFF" d="M0 900 l0 -900 900 0 900 0 0 900 0 900 -900 0 -900 0 0 -900z
m850 455 c42 -22 63 -68 57 -122 -6 -53 -36 -89 -85 -103 -129 -35 -216 122 -116 210 40 34 95 40 144 15z
m154 -237 c77 -23 215 -192 280 -341 l29 -67 161 -2
c160 -3 161 -3 164 -26 7 -49 9 -49 -414 -50 -217 0 -397 -2 -400 -4 -2 -3 13 -19 34 -36 l39 -30 129 20
c175 29 433 31 554 5 99 -21 170 -50 170 -69 0 -10
-44 -13 -208 -14 -185 0 -368 -16 -487 -40 l-30 -7 38 -32 c29 -25 49 -33 91
-38 29 -3 71 -14 93 -26 54 -27 152 -117 159 -146 7 -28 -17 -77 -52 -104 -41
-33 -78 -27 -148 23 -85 61 -113 94 -135 156 -15 43 -31 64 -78 102 -49 41
-63 48 -88 43 -156 -28 -382 -33 -497 -11 -86 17 -178 50 -232 83 -52 33 -126
103 -126 119 0 25 19 25 59 -1 58 -36 172 -71 279 -86 93 -12 379 -8 401 5 7
5 -9 24 -40 48 l-52 41 -248 0 c-231 0 -250 2 -266 19 -13 15 -15 23 -6 36 9
15 35 17 212 20 112 1 201 6 199 11 -7 20 -143 121 -162 121 -45 0 -62 52 -27
84 36 32 489 205 540 206 13 0 42 -6 65 -12z"/>
<path fill="#FFFFFF" d="M705 905 c-44 -13 -100 -29 -125 -37 l-44 -14 53 -40 53 -41 24 24
c40 39 103 32 196 -22 70 -41 108 -55 108 -39 0 12 -26 52 -77 122 -63 83 -64
83 -188 47z"/>
</g>
</svg>
