<?xml version="1.0" encoding="UTF-8" standalone="no"?>
<!DOCTYPE svg PUBLIC "-//W3C//DTD SVG 20010904//EN"
              "http://www.w3.org/TR/2001/REC-SVG-20010904/DTD/svg10.dtd">

<svg xmlns="http://www.w3.org/2000/svg"
     width="3in" height="2.5in"
     viewBox="0 50 512 512">
  <path id="Selection"
        fill="#ffffff"
        d="M 251.37,137.00
           C 263.02,153.26 258.20,177.44 240.00,186.62
             233.40,189.96 229.16,190.08 222.00,190.00
             199.35,189.72 185.02,166.87 192.10,146.00
             196.47,133.13 205.98,125.95 219.00,123.44
             231.68,121.81 243.79,126.43 251.37,137.00 Z
           M 132.00,274.89
           C 126.93,271.81 123.06,273.98 117.00,270.72
             111.93,268.00 109.55,263.72 110.11,258.00
             110.65,252.48 114.41,249.32 119.00,246.80
             119.00,246.80 147.00,234.80 147.00,234.80
             147.00,234.80 233.00,202.00 233.00,202.00
             246.49,197.40 262.50,190.85 277.00,193.46
             294.25,196.57 304.66,206.60 316.08,219.00
             331.02,235.21 343.45,252.73 354.14,272.00
             354.14,272.00 366.15,297.00 366.15,297.00
             367.26,299.61 370.09,307.88 371.70,309.40
             373.75,311.35 377.35,310.99 380.00,311.00
             380.00,311.00 450.00,311.00 450.00,311.00
             453.71,311.01 457.69,310.78 460.96,312.85
             466.63,316.45 467.51,323.95 461.79,327.99
             458.62,330.23 454.68,329.99 451.00,330.00
             451.00,330.00 297.00,330.00 297.00,330.00
             297.00,330.00 250.00,330.00 250.00,330.00
             243.14,330.00 231.16,329.25 225.00,331.00
             230.88,334.10 239.54,341.74 245.00,346.25
             247.84,348.60 252.39,352.99 256.00,353.60
             256.00,353.60 277.00,350.41 277.00,350.41
             277.00,350.41 320.00,344.07 320.00,344.07
             356.02,339.95 394.98,339.54 431.00,344.07
             447.21,345.78 465.84,349.58 481.00,355.60
             484.30,356.91 495.53,360.48 494.97,364.95
             494.48,368.87 488.48,367.45 486.00,367.15
             486.00,367.15 459.00,365.00 459.00,365.00
             459.00,365.00 425.00,365.00 425.00,365.00
             425.00,365.00 407.00,366.00 407.00,366.00
             407.00,366.00 357.00,370.28 357.00,370.28
             357.00,370.28 318.00,375.42 318.00,375.42
             318.00,375.42 287.00,380.00 287.00,380.00
             290.91,384.43 299.13,390.65 304.00,394.61
             306.87,396.95 310.48,400.43 314.00,401.49
             318.94,402.98 333.66,402.00 347.00,407.06
             359.12,411.67 370.32,421.30 380.00,429.72
             385.48,434.49 396.94,445.06 398.94,452.00
             400.43,457.17 397.11,462.90 394.28,467.00
             389.69,473.63 379.46,484.87 371.00,485.75
             368.19,486.04 365.56,485.19 363.00,484.12
             348.26,477.99 320.79,456.10 312.10,443.00
             305.84,433.56 303.49,418.01 301.84,415.09
             300.14,412.08 294.81,408.26 292.00,405.92
             292.00,405.92 267.00,386.03 267.00,386.03
             263.29,384.09 258.84,385.46 255.00,386.03
             255.00,386.03 233.00,389.73 233.00,389.73
             233.00,389.73 187.00,394.00 187.00,394.00
             187.00,394.00 156.00,394.00 156.00,394.00
             156.00,394.00 144.00,393.09 144.00,393.09
             108.98,390.53 73.34,381.60 44.00,361.66
             35.80,356.08 27.88,349.73 21.62,342.00
             19.91,339.89 15.87,335.24 17.23,332.32
             19.38,327.74 26.59,333.70 29.00,335.19
             40.34,342.19 54.20,347.83 67.00,351.58
             85.92,357.11 105.35,360.65 125.00,362.09
             125.00,362.09 135.00,363.00 135.00,363.00
             135.00,363.00 163.00,364.00 163.00,364.00
             163.00,364.00 178.00,363.00 178.00,363.00
             178.00,363.00 233.00,358.00 233.00,358.00
             233.00,358.00 213.00,341.08 213.00,341.08
             205.20,334.61 202.39,330.02 192.00,330.00
             192.00,330.00 66.00,330.00 66.00,330.00
             62.35,329.99 58.34,330.23 55.22,327.99
             49.88,324.16 50.76,316.29 56.06,312.85
             59.26,310.77 63.34,311.01 67.00,311.00
             67.00,311.00 142.00,311.00 142.00,311.00
             146.38,311.00 164.09,311.47 167.00,310.40
             169.19,309.60 170.29,308.44 172.00,307.00
             172.00,307.00 132.00,274.89 132.00,274.89 Z
           M 172.00,287.25
           C 173.95,288.86 178.82,293.20 180.99,293.87
             185.09,295.14 189.05,288.78 192.00,286.19
             197.19,281.64 205.09,279.00 212.00,279.52
             226.71,280.62 245.32,294.10 258.00,301.60
             262.50,304.26 271.74,309.52 276.40,304.44
             279.34,301.23 276.34,296.04 274.55,293.00
             269.18,283.91 262.71,275.29 256.21,267.00
             256.21,267.00 243.25,251.00 243.25,251.00
             241.30,248.70 238.99,245.59 236.00,244.69
             232.20,243.54 215.56,248.31 211.00,249.58
             211.00,249.58 150.00,267.00 150.00,267.00
             153.14,273.50 165.98,282.28 172.00,287.25 Z" />
</svg>
