<?xml version="1.0" encoding="UTF-8" standalone="no"?>
<!DOCTYPE svg PUBLIC "-//W3C//DTD SVG 20010904//EN"
              "http://www.w3.org/TR/2001/REC-SVG-20010904/DTD/svg10.dtd">

<svg xmlns="http://www.w3.org/2000/svg"
     width="1.2in" height="1.2in"
     viewBox="0 65 512 512">
  <path id="Selection #1"
        fill="#ffffff" 
        d="M 183.27,138.17
           C 180.74,140.16 176.15,142.00 173.00,142.62
             154.75,146.25 138.65,128.97 143.63,111.00
             146.55,100.48 154.09,95.37 164.00,92.53
             188.85,88.56 205.23,120.95 183.27,138.17 Z
           M 158.00,254.42
           C 156.07,252.90 151.93,249.31 149.83,248.56
             147.94,247.88 145.03,248.00 143.00,248.00
             143.00,248.00 52.00,248.00 52.00,248.00
             49.61,248.00 46.22,248.13 44.02,247.26
             38.16,244.96 36.79,238.54 42.13,234.74
             44.96,232.72 48.69,233.01 52.00,232.96
             52.00,232.96 110.00,232.96 110.00,232.96
             110.00,232.96 123.96,232.96 123.96,232.96
             125.65,232.63 128.23,232.06 127.04,229.75
             126.25,228.22 121.09,224.31 119.46,222.97
             119.46,222.97 98.83,206.27 98.83,206.27
             93.60,203.69 82.24,205.48 83.06,194.00
             83.60,186.39 91.89,183.75 98.00,181.27
             98.00,181.27 147.00,161.86 147.00,161.86
             161.34,156.71 186.52,145.60 201.00,145.04
             216.22,144.45 226.50,152.56 236.32,163.17
             248.49,176.33 260.35,192.99 268.42,209.00
             271.68,215.47 276.87,226.04 278.00,233.00
             278.00,233.00 338.00,233.00 338.00,233.00
             342.50,233.07 347.71,233.86 349.16,239.02
             351.37,246.92 341.08,247.99 336.00,248.00
             336.00,248.00 170.00,248.00 170.00,248.00
             170.00,248.00 183.72,259.63 183.72,259.63
             186.03,261.61 188.97,264.61 192.00,265.27
             194.83,265.88 201.46,263.59 205.00,263.17
             205.00,263.17 223.00,260.29 223.00,260.29
             223.00,260.29 240.00,258.28 240.00,258.28
             247.55,257.26 250.38,257.01 258.00,257.00
             258.00,257.00 273.00,256.00 273.00,256.00
             273.00,256.00 296.00,256.00 296.00,256.00
             296.00,256.00 315.00,257.00 315.00,257.00
             325.12,257.12 347.36,261.93 357.00,265.47
             363.33,267.80 368.84,268.54 372.00,275.00
             372.00,275.00 342.00,274.00 342.00,274.00
             342.00,274.00 320.00,274.00 320.00,274.00
             320.00,274.00 304.00,275.00 304.00,275.00
             304.00,275.00 271.00,278.00 271.00,278.00
             271.00,278.00 263.00,278.00 263.00,278.00
             263.00,278.00 248.00,280.57 248.00,280.57
             248.00,280.57 240.00,281.29 240.00,281.29
             240.00,281.29 215.00,285.00 215.00,285.00
             215.00,285.00 227.83,295.63 227.83,295.63
             230.37,297.73 232.80,300.39 236.00,301.44
             238.60,302.29 243.07,301.88 246.00,302.09
             250.12,302.38 257.16,304.08 261.00,305.59
             271.39,309.68 289.41,324.74 296.24,333.73
             306.69,347.47 284.24,364.06 278.00,364.62
             272.25,365.14 257.72,354.89 253.17,351.13
             246.99,346.01 237.83,338.23 233.61,331.58
             229.95,325.80 227.95,314.34 226.02,311.17
             224.10,308.03 212.54,299.14 209.00,296.35
             209.00,296.35 200.83,289.97 200.83,289.97
             196.78,288.00 183.73,291.04 179.00,292.00
             179.00,292.00 138.00,296.00 138.00,296.00
             138.00,296.00 119.00,296.00 119.00,296.00
             112.60,295.99 106.33,295.01 100.00,294.13
             100.00,294.13 87.00,292.54 87.00,292.54
             71.49,289.72 53.23,283.65 39.72,275.53
             29.09,269.14 16.68,261.03 12.00,249.00
             18.70,247.57 25.90,253.99 32.00,256.90
             42.80,262.03 57.25,266.06 69.00,268.49
             69.00,268.49 77.00,269.44 77.00,269.44
             90.34,271.54 87.54,271.98 102.00,272.00
             102.00,272.00 121.00,273.00 121.00,273.00
             121.00,273.00 131.00,272.04 131.00,272.04
             131.00,272.04 144.00,272.04 144.00,272.04
             144.00,272.04 175.00,269.00 175.00,269.00
             175.00,269.00 158.00,254.42 158.00,254.42 Z
           M 129.70,216.08
           C 131.45,217.50 134.67,220.49 137.00,220.39
             140.57,220.24 142.47,215.22 148.00,212.28
             157.92,206.99 165.86,210.82 175.00,215.41
             175.00,215.41 197.42,228.42 197.42,228.42
             200.11,229.73 205.02,230.91 207.38,228.42
             209.74,225.91 207.55,222.34 206.12,220.00
             206.12,220.00 193.63,202.00 193.63,202.00
             191.12,198.66 180.94,185.44 177.96,184.11
             174.31,182.48 162.08,186.26 158.00,187.41
             158.00,187.41 113.00,200.00 113.00,200.00
             114.96,205.93 124.78,212.09 129.70,216.08 Z" />
</svg>
