<?xml version="1.0" encoding="UTF-8" standalone="no"?>
<!DOCTYPE svg PUBLIC "-//W3C//DTD SVG 20010904//EN"
              "http://www.w3.org/TR/2001/REC-SVG-20010904/DTD/svg10.dtd">

<svg xmlns="http://www.w3.org/2000/svg"
     width="2in" height="1.2in"
     viewBox="0 0 370 288">
  <path id="Selection"
        fill="#ffffff"
        d="M 177.27,56.17
           C 174.74,58.16 170.15,60.00 167.00,60.62
             148.75,64.25 132.65,46.97 137.63,29.00
             140.55,18.48 148.09,13.37 158.00,10.53
             182.85,6.56 199.23,38.95 177.27,56.17 Z
           M 152.00,172.42
           C 150.07,170.90 145.93,167.31 143.83,166.56
             141.94,165.88 139.03,166.00 137.00,166.00
             137.00,166.00 46.00,166.00 46.00,166.00
             43.61,166.00 40.22,166.13 38.02,165.26
             32.16,162.96 30.79,156.54 36.13,152.74
             38.96,150.72 42.69,151.01 46.00,150.96
             46.00,150.96 104.00,150.96 104.00,150.96
             104.00,150.96 117.96,150.96 117.96,150.96
             119.65,150.63 122.23,150.06 121.04,147.75
             120.25,146.22 115.09,142.31 113.46,140.97
             113.46,140.97 92.83,124.27 92.83,124.27
             87.60,121.69 76.24,123.48 77.06,112.00
             77.60,104.39 85.89,101.75 92.00,99.27
             92.00,99.27 141.00,79.86 141.00,79.86
             155.34,74.71 180.52,63.60 195.00,63.04
             210.22,62.45 220.50,70.56 230.32,81.17
             242.49,94.33 254.35,110.99 262.42,127.00
             265.68,133.47 270.87,144.04 272.00,151.00
             272.00,151.00 332.00,151.00 332.00,151.00
             336.50,151.07 341.71,151.86 343.16,157.02
             345.37,164.92 335.08,165.99 330.00,166.00
             330.00,166.00 164.00,166.00 164.00,166.00
             164.00,166.00 177.72,177.63 177.72,177.63
             180.03,179.61 182.97,182.61 186.00,183.27
             188.83,183.88 195.46,181.59 199.00,181.17
             199.00,181.17 217.00,178.29 217.00,178.29
             217.00,178.29 234.00,176.28 234.00,176.28
             241.55,175.26 244.38,175.01 252.00,175.00
             252.00,175.00 267.00,174.00 267.00,174.00
             267.00,174.00 290.00,174.00 290.00,174.00
             290.00,174.00 309.00,175.00 309.00,175.00
             319.12,175.12 341.36,179.93 351.00,183.47
             357.33,185.80 362.84,186.54 366.00,193.00
             366.00,193.00 336.00,192.00 336.00,192.00
             336.00,192.00 314.00,192.00 314.00,192.00
             314.00,192.00 298.00,193.00 298.00,193.00
             298.00,193.00 265.00,196.00 265.00,196.00
             265.00,196.00 257.00,196.00 257.00,196.00
             257.00,196.00 242.00,198.57 242.00,198.57
             242.00,198.57 234.00,199.29 234.00,199.29
             234.00,199.29 209.00,203.00 209.00,203.00
             209.00,203.00 221.83,213.63 221.83,213.63
             224.37,215.73 226.80,218.39 230.00,219.44
             232.60,220.29 237.07,219.88 240.00,220.09
             244.12,220.38 251.16,222.08 255.00,223.59
             265.39,227.68 283.41,242.74 290.24,251.73
             300.69,265.47 278.24,282.06 272.00,282.62
             266.25,283.14 251.72,272.89 247.17,269.13
             240.99,264.01 231.83,256.23 227.61,249.58
             223.95,243.80 221.95,232.34 220.02,229.17
             218.10,226.03 206.54,217.14 203.00,214.35
             203.00,214.35 194.83,207.97 194.83,207.97
             190.78,206.00 177.73,209.04 173.00,210.00
             173.00,210.00 132.00,214.00 132.00,214.00
             132.00,214.00 113.00,214.00 113.00,214.00
             106.60,213.99 100.33,213.01 94.00,212.13
             94.00,212.13 81.00,210.54 81.00,210.54
             65.49,207.72 47.23,201.65 33.72,193.53
             23.09,187.14 10.68,179.03 6.00,167.00
             12.70,165.57 19.90,171.99 26.00,174.90
             36.80,180.03 51.25,184.06 63.00,186.49
             63.00,186.49 71.00,187.44 71.00,187.44
             84.34,189.54 81.54,189.98 96.00,190.00
             96.00,190.00 115.00,191.00 115.00,191.00
             115.00,191.00 125.00,190.04 125.00,190.04
             125.00,190.04 138.00,190.04 138.00,190.04
             138.00,190.04 169.00,187.00 169.00,187.00
             169.00,187.00 152.00,172.42 152.00,172.42 Z
           M 123.70,134.08
           C 125.45,135.50 128.67,138.49 131.00,138.39
             134.57,138.24 136.47,133.22 142.00,130.28
             151.92,124.99 159.86,128.82 169.00,133.41
             169.00,133.41 191.42,146.42 191.42,146.42
             194.11,147.73 199.02,148.91 201.38,146.42
             203.74,143.91 201.55,140.34 200.12,138.00
             200.12,138.00 187.63,120.00 187.63,120.00
             185.12,116.66 174.94,103.44 171.96,102.11
             168.31,100.48 156.08,104.26 152.00,105.41
             152.00,105.41 107.00,118.00 107.00,118.00
             108.96,123.93 118.78,130.09 123.70,134.08 Z" />
</svg>
