<?xml version="1.0" encoding="utf-8"?>
<!-- Generator: Adobe Illustrator 18.0.0, SVG Export Plug-In . SVG Version: 6.00 Build 0)  -->
<!DOCTYPE svg PUBLIC "-//W3C//DTD SVG 1.1//EN" "http://www.w3.org/Graphics/SVG/1.1/DTD/svg11.dtd">
<svg version="1.1" id="Layer_1" xmlns="http://www.w3.org/2000/svg" xmlns:xlink="http://www.w3.org/1999/xlink" x="0px" y="0px"
	 viewBox="0 0 267.8 144.7" enable-background="new 0 0 267.8 144.7" xml:space="preserve">
<g>
	<path fill="#FFFFFF" d="M215.2,83.1L215.2,83.1c-5.9,3.8-18.1,3.2-25.2,4.6c-12.5,2.3-25,5.7-37.6,8.1c-19.6,3.7-39.5,4.8-59.2,4.6
		c-13.8-0.3-30.4-0.8-42-11.3c2.5,6.4,9.1,11,16.5,13.9c7.4,2.9,15.6,4,21.5,4.6c16.9,1.4,34.2,1.6,51.2,1c18.3-0.7,26.7-1.5,45-3.5
		c7.3-0.7,14.8-2,22-3.7c3.5-0.8,7.9-2.3,10.2-5C219.8,93.8,217.5,81.7,215.2,83.1z"/>
	<path fill="#FFFFFF" d="M215.2,83.1L215.2,83.1C215.3,83.1,215.3,83.1,215.2,83.1z"/>
	<path fill="#FFFFFF" d="M55.8,89.8c-0.7-0.5-1.1-0.8,0.1,0.1c3,2,1.4,1,0.2,0.1c12.3,8.1,27.5,8.2,41.2,8.2
		c18.2-0.1,36.7-1.5,54.8-5.1c11.7-2.3,23.3-5.4,34.8-7.7c7.8-1.5,17.1-1.5,24.5-3.6c8.6-2.4-0.2-27.2-1.9-32.6
		c-2.5-8.5-7-17.4-17.4-10.8c-2.8,1.7-9.1,5.9-15.4,8.4c-6.3,2.4-12.5,3.2-15.2-3c-1.8-4.1-2.9-5.9-6.8-7.9c-4-2-7.8-2.4-14.4,0.9
		c4,2,2.2,8.2-1.3,5.5c-0.5,0.1-2.6-2.1-2.9-2.4c-1.2-1-5.2,2.3-6.5,3.1c2,1.2,3.3,4.1-0.2,5.8c-5.5,2.7-2.3-4.4-9.3-0.1
		c1.7,1.4,3.4,5.2-0.3,5.7c-1.5,0.2-2.8-1.3-3.8-2.1c-1.4-1.2-4.7,2-6.2,2.9c2,1.2,3.5,5.6-0.3,6c-1.5,0.2-2.8-1.5-3.8-2.4
		c-1.4-1.3-4.4,1.6-5.9,2.5c1.6,1,3.4,3.3,1.7,5.2c-3,3.5-4.4-2.3-6.5-2.4c-6,3.3-12.3,5.5-18.6,7.3c-6,1.7-11.9,3.3-18.1,3.6
		c-5,0.2-8,2.1-8.6,5C49.2,82.8,51.1,86.6,55.8,89.8z"/>
</g>
</svg>
