<?xml version="1.0" encoding="UTF-8" standalone="no"?>
<!DOCTYPE svg PUBLIC "-//W3C//DTD SVG 20010904//EN"
              "http://www.w3.org/TR/2001/REC-SVG-20010904/DTD/svg10.dtd">

<svg version="1.1" id="Layer_1" xmlns="http://www.w3.org/2000/svg" xmlns:xlink="http://www.w3.org/1999/xlink" x="0px" y="0px"
	 viewBox="0 0 267.8 144.7" enable-background="new 0 0 267.8 144.7" xml:space="preserve">
  <path id="Selection"
        fill="#ffffff"
        d="M 141.99,26.30
           C 131.10,30.08 123.27,19.98 126.74,11.00
             128.27,7.03 131.28,5.20 135.00,3.66
             150.65,1.13 155.24,21.70 141.99,26.30 Z
           M 161.11,70.17
           C 159.96,72.61 161.91,81.89 162.43,85.00
             162.43,85.00 167.44,115.00 167.44,115.00
             167.44,115.00 169.56,126.00 169.56,126.00
             170.76,135.35 169.07,139.93 159.00,140.00
             159.00,140.00 118.00,140.00 118.00,140.00
             107.57,139.98 100.06,135.89 97.66,125.00
             96.55,119.98 98.35,114.98 101.39,111.00
             103.19,108.64 106.35,106.09 106.62,103.00
             106.79,101.00 104.90,97.07 104.18,95.00
             104.18,95.00 98.75,77.00 98.75,77.00
             98.19,74.84 97.33,70.17 97.34,68.00
             97.35,64.93 98.49,60.99 99.27,58.00
             102.39,46.03 108.76,29.77 123.00,28.19
             130.50,27.35 136.75,32.26 140.42,38.44
             141.85,40.83 142.92,44.83 144.56,46.44
             146.91,48.75 159.40,50.82 163.00,51.00
             162.32,53.27 161.76,55.59 159.61,56.98
             156.40,59.05 141.54,58.12 138.00,56.43
             135.25,55.12 133.18,53.06 131.00,51.00
             131.00,51.00 127.40,57.00 127.40,57.00
             127.40,57.00 125.64,61.00 125.64,61.00
             122.10,71.29 138.18,69.16 141.92,77.10
             143.49,80.43 140.86,83.60 138.82,86.00
             134.52,91.05 128.87,98.22 123.00,101.00
             123.00,101.00 122.14,92.00 122.14,92.00
             122.14,92.00 126.00,83.00 126.00,83.00
             126.00,83.00 116.00,80.00 116.00,80.00
             116.00,80.00 125.00,126.00 125.00,126.00
             123.20,125.99 119.93,126.14 118.33,125.43
             114.47,123.71 111.91,114.90 111.00,111.00
             108.49,112.84 106.68,114.15 105.16,116.99
             99.47,127.60 114.25,140.54 124.89,129.89
             126.83,127.96 128.39,125.78 128.73,123.00
             128.73,123.00 124.00,104.00 124.00,104.00
             141.16,105.40 145.04,110.16 159.00,118.00
             159.00,118.00 154.93,78.00 154.93,78.00
             154.93,78.00 154.02,67.11 154.02,67.11
             154.02,67.11 160.95,60.73 160.95,60.73
             160.95,60.73 169.00,51.00 169.00,51.00
             173.54,61.19 163.56,64.95 161.11,70.17 Z" />
</svg>
