<?xml version="1.0" encoding="utf-8"?>
<!-- Generator: Adobe Illustrator 18.0.0, SVG Export Plug-In . SVG Version: 6.00 Build 0)  -->
<!DOCTYPE svg PUBLIC "-//W3C//DTD SVG 1.1//EN" "http://www.w3.org/Graphics/SVG/1.1/DTD/svg11.dtd">
<svg version="1.1" id="Layer_1" xmlns="http://www.w3.org/2000/svg" xmlns:xlink="http://www.w3.org/1999/xlink" x="0px" y="0px"
	 viewBox="0 0 267.8 144.7" enable-background="new 0 0 267.8 144.7" xml:space="preserve">
<g>
	<path fill="#FFFFFF" d="M185.5,55.4c0-11.3-9.2-20.5-20.5-20.5c-11.3,0-20.5,9.2-20.5,20.5c0,11.3,9.2,20.5,20.5,20.5
		C176.3,75.9,185.5,66.7,185.5,55.4z"/>
	<path fill="#FFFFFF" d="M50.7,55l-3.2,11.8l52.6-12.2l6.3,8.2L53.4,89.5l0.3,0.9c2.4,8,7.7,12.6,14.5,12.6c5.2,0,10.5-2.7,14.2-7
		c3.1,4.3,7.3,6.7,12.1,6.7h0c5.1,0,10.2-2.8,13.8-7.3c3.1,4.7,8.4,7.8,13.6,7.8h0c4.9,0,9.3-2.7,12.6-7.5c4,6,8.6,7.3,11.9,7.3
		c5.7,0,11.1-3.8,14.2-7.4l0.6-0.7l-53.5-61L50.7,55z"/>
	<path fill="#FFFFFF" d="M213.1,92.9c-9.1-0.9-15.6-1.5-21.2-8.2l-1.4-1.7l-0.5,2.1c-0.1,0.4-2.6,10.5-12.5,10.5
		c-2.7,0-5.8-0.8-9.2-2.3l-3.1-1.4l1.7,2.9c2.9,4.9,7.3,7.4,12.7,7.4c5.1,0,9.8-2.2,11.4-3.1c3,2,6.6,3.1,10.3,3.1h0
		c5.9,0,11-2.8,13.8-7.7l0.9-1.5L213.1,92.9z"/>
</g>
</svg>
